<svg viewBox="0 0 72 72" xmlns="http://www.w3.org/2000/svg"><path d="m31 45a.9448.9448 0 0 0 -1 1 9.2 9.2 0 1 1 -9.2-9.2l.2-2h-.2a11.2 11.2 0 1 0 11.2 11.2.9448.9448 0 0 0 -1-1z"/><path d="m52.8 34.8a12.2713 12.2713 0 0 0 -3.9.7l.9 1.8a10.4735 10.4735 0 0 1 3-.5 9.2 9.2 0 1 1 -9.1 9.7l-2-.1a11.1545 11.1545 0 1 0 11.1-11.6z"/><path d="m48 38.2-.9-1.8a11.0932 11.0932 0 0 0 -5.3 7.9l2 .1a9.3751 9.3751 0 0 1 4.2-6.2z"/><g fill="none" stroke="#000" stroke-linecap="round" stroke-linejoin="round" stroke-width="2"><path d="m23 22h4"/><path d="m42 25.7h6"/><path d="m21.1 46 1.7-21.4"/><path d="m36 45-13-15"/><path d="m45 30 8 16"/><path d="m23 30h21"/><path d="m46 28.4-10 16.6"/><path d="m36 45 17 1"/></g></svg>