<svg width="24" height="24" viewBox="0 0 24 24" fill="none" xmlns="http://www.w3.org/2000/svg">
<path d="M9.01499 10.55L8.44299 12.376H10.346L9.76299 10.55C9.64912 10.1753 9.54574 9.79749 9.45299 9.417L9.38899 9.164H9.36699L9.25299 9.629C9.17899 9.939 9.10299 10.261 9.01499 10.55ZM15.297 10.946C14.461 10.946 14.109 11.705 14.054 12.255H16.408C16.418 11.76 16.198 10.946 15.297 10.946Z" fill="#FFF3E8"/>
<path fill-rule="evenodd" clip-rule="evenodd" d="M6.77 3.08199C10.246 2.69691 13.754 2.69691 17.23 3.08199C19.129 3.29399 20.66 4.78899 20.883 6.69499C21.2949 10.2197 21.2949 13.7803 20.883 17.305C20.66 19.211 19.129 20.706 17.231 20.919C13.7546 21.3041 10.2464 21.3041 6.77 20.919C4.871 20.706 3.34 19.211 3.117 17.306C2.70498 13.781 2.70498 10.22 3.117 6.69499C3.34 4.78899 4.871 3.29399 6.77 3.08199ZM11.248 15.5L10.578 13.399H8.222L7.585 15.5H6.188L8.564 8.08599H10.291L12.701 15.5H11.248ZM17.684 12.629C17.684 12.882 17.662 13.08 17.64 13.201H14.054C14.087 14.169 14.846 14.587 15.704 14.587C16.331 14.587 16.782 14.499 17.189 14.345L17.387 15.28C16.925 15.467 16.287 15.621 15.517 15.621C13.779 15.621 12.756 14.543 12.756 12.904C12.756 11.419 13.658 10.022 15.374 10.022C17.123 10.022 17.684 11.452 17.684 12.629Z" fill="#FFF3E8"/>
</svg>
