<svg width="24" height="24" viewBox="0 0 24 24" fill="none" xmlns="http://www.w3.org/2000/svg">
<path d="M5.808 20C5.576 20 5.38333 19.9233 5.23 19.77C5.07667 19.6167 5 19.424 5 19.192V18.172C5 17.956 5.04333 17.7463 5.13 17.543C5.21667 17.3397 5.333 17.1657 5.479 17.021L18.214 4.292C18.324 4.182 18.44 4.106 18.562 4.064C18.684 4.022 18.8053 4.00067 18.926 4C19.052 4 19.178 4.02133 19.304 4.064C19.4307 4.106 19.5407 4.182 19.634 4.292L20.707 5.366C20.817 5.45933 20.8933 5.56933 20.936 5.696C20.978 5.822 20.999 5.94767 20.999 6.073C20.999 6.195 20.978 6.317 20.936 6.439C20.894 6.561 20.8173 6.677 20.706 6.787L7.98 19.52C7.83467 19.6653 7.66067 19.7813 7.458 19.868C7.25533 19.9547 7.04567 19.9987 6.829 20H5.808ZM6 19H7.073L17.629 8.45L17.102 7.898L16.55 7.371L6 17.927V19ZM17.102 7.898L16.55 7.371L17.629 8.45L17.102 7.898ZM14.269 20C15.3743 20 16.4007 19.7367 17.348 19.21C18.2953 18.6833 18.769 17.9467 18.769 17C18.769 16.492 18.61 16.0293 18.292 15.612C17.974 15.1947 17.515 14.8387 16.915 14.544C16.797 14.48 16.672 14.4673 16.54 14.506C16.408 14.5447 16.308 14.619 16.24 14.729C16.172 14.839 16.1573 14.963 16.196 15.101C16.2347 15.239 16.313 15.34 16.431 15.404C16.8563 15.6127 17.1857 15.853 17.419 16.125C17.6523 16.397 17.769 16.6887 17.769 17C17.769 17.5627 17.4233 18.0367 16.732 18.422C16.04 18.8073 15.219 19 14.269 19C14.127 19 14.008 19.0477 13.912 19.143C13.816 19.2383 13.7683 19.3573 13.769 19.5C13.7697 19.6427 13.8173 19.7617 13.912 19.857C14.0067 19.9523 14.1257 20 14.269 20ZM10 6.5C10 6.84867 9.81567 7.16367 9.447 7.445C9.07833 7.72633 8.35 8.10867 7.262 8.592C6.018 9.13667 5.16333 9.61767 4.698 10.035C4.23267 10.4523 4 10.9407 4 11.5C4 11.8947 4.113 12.2363 4.339 12.525C4.565 12.8137 4.836 13.057 5.152 13.255C5.266 13.3363 5.386 13.3613 5.512 13.33C5.638 13.2987 5.74133 13.226 5.822 13.112C5.90267 12.998 5.928 12.8747 5.898 12.742C5.868 12.6093 5.79633 12.503 5.683 12.423C5.45033 12.2757 5.27833 12.125 5.167 11.971C5.05567 11.817 5 11.66 5 11.5C5 11.1973 5.18533 10.901 5.556 10.611C5.926 10.3217 6.62667 9.95567 7.658 9.513C8.97067 8.957 9.856 8.45567 10.314 8.009C10.7713 7.56367 11 7.06067 11 6.5C11 5.776 10.675 5.17833 10.025 4.707C9.375 4.23567 8.53333 4 7.5 4C6.878 4 6.28733 4.114 5.728 4.342C5.168 4.57067 4.76167 4.85067 4.509 5.182C4.41567 5.29667 4.376 5.42 4.39 5.552C4.404 5.684 4.46833 5.795 4.583 5.885C4.69633 5.965 4.81633 5.99833 4.943 5.985C5.06833 5.971 5.17767 5.917 5.271 5.823C5.543 5.551 5.86533 5.346 6.238 5.208C6.61133 5.06933 7.032 5 7.5 5C8.286 5 8.89933 5.148 9.34 5.444C9.78 5.74133 10 6.09333 10 6.5Z" fill="black"/>
</svg>
