<svg width="24" height="24" viewBox="0 0 24 24" fill="none" xmlns="http://www.w3.org/2000/svg">
<path d="M10.401 10.55L9.82898 12.376H11.732L11.149 10.55C11.033 10.185 10.932 9.784 10.839 9.417L10.775 9.164H10.753C10.7156 9.312 10.6776 9.467 10.639 9.629C10.565 9.939 10.488 10.261 10.401 10.55Z" fill="#FFF3E8"/>
<path fill-rule="evenodd" clip-rule="evenodd" d="M6.77 3.08199C10.246 2.69691 13.754 2.69691 17.23 3.08199C19.129 3.29399 20.66 4.78899 20.883 6.69499C21.2949 10.2197 21.2949 13.7803 20.883 17.305C20.66 19.211 19.129 20.706 17.231 20.919C13.7546 21.3041 10.2464 21.3041 6.77 20.919C4.871 20.706 3.34 19.211 3.117 17.306C2.70498 13.781 2.70498 10.22 3.117 6.69499C3.34 4.78899 4.871 3.29399 6.77 3.08199ZM15.932 10.143V15.5H14.568V10.143H15.932ZM14.492 8.64699C14.492 8.22899 14.799 7.90999 15.25 7.90999C15.713 7.90999 15.999 8.22899 16.01 8.64699C16.01 9.05399 15.712 9.37299 15.24 9.37299C14.789 9.37299 14.492 9.05399 14.492 8.64699ZM12.634 15.5L11.963 13.399H9.609L8.971 15.5H7.574L9.95 8.08599H11.677L14.086 15.5H12.634Z" fill="#FFF3E8"/>
</svg>
