<svg width="16" height="16" viewBox="0 0 16 16" fill="none" xmlns="http://www.w3.org/2000/svg">
<path d="M14.5 13.5H11.4619C12.7864 12.6655 13.7651 11.3809 14.2179 9.88234C14.6707 8.3838 14.5672 6.77215 13.9264 5.34384C13.2856 3.91553 12.1507 2.76662 10.7303 2.10842C9.30997 1.45022 7.69971 1.32701 6.19574 1.76145C4.69178 2.19589 3.39524 3.15876 2.54463 4.47295C1.69401 5.78714 1.34651 7.36428 1.56605 8.91427C1.78559 10.4643 2.55741 11.8828 3.73953 12.9091C4.92166 13.9354 6.43459 14.5003 8.00005 14.5H14.5C14.6327 14.5 14.7598 14.4473 14.8536 14.3536C14.9474 14.2598 15 14.1326 15 14C15 13.8674 14.9474 13.7402 14.8536 13.6465C14.7598 13.5527 14.6327 13.5 14.5 13.5ZM8.00005 2.50001C8.9641 2.49893 9.9113 2.75271 10.7457 3.23564C10.1431 3.50808 9.56079 3.82326 9.00317 4.17876C8.12049 3.61589 7.177 3.15462 6.19067 2.80376C6.77239 2.60134 7.38412 2.49865 8.00005 2.50001ZM4.91005 3.45251C6.03075 3.7558 7.10528 4.20929 8.10442 4.80064C7.67747 5.12201 7.26911 5.46736 6.8813 5.83501C5.8552 5.28894 4.75127 4.90382 3.60817 4.69314C3.97172 4.21149 4.41146 3.79244 4.91005 3.45251ZM3.04505 5.61376C4.12441 5.77148 5.1721 6.09863 6.14942 6.58314C5.80236 6.96454 5.47625 7.3645 5.17255 7.78126C4.34969 7.41197 3.47558 7.16963 2.58005 7.06251C2.66678 6.56029 2.8233 6.07265 3.04505 5.61376ZM2.50005 8.06251C3.22332 8.15185 3.9307 8.34116 4.60192 8.62501C4.12808 9.38575 3.72893 10.1905 3.41005 11.0281C2.82682 10.1482 2.51077 9.11817 2.50005 8.06251ZM4.1513 11.9256C4.75161 10.1246 5.73663 8.47578 7.038 7.09357C8.33937 5.71137 9.92592 4.62889 11.6875 3.92126C12.0822 4.27837 12.4236 4.69027 12.7013 5.14439C10.9599 5.75361 9.39069 6.77311 8.1264 8.11671C6.8621 9.46031 5.93983 11.0885 5.43755 12.8638C4.96607 12.6146 4.53306 12.2986 4.15192 11.9256H4.1513ZM7.8538 13.5C7.34818 13.4858 6.84697 13.4017 6.36442 13.25C6.81512 11.585 7.66945 10.0569 8.85175 8.80087C10.034 7.54488 11.5078 6.59982 13.1425 6.04939C13.3222 6.52208 13.4354 7.01744 13.4788 7.52126C12.1358 8.00301 10.9259 8.79591 9.94826 9.83508C8.97057 10.8743 8.25284 12.1302 7.8538 13.5ZM13.4675 8.59751C13.3362 9.78568 12.8222 10.899 12.003 11.7695C11.1837 12.64 10.1037 13.2206 8.92567 13.4238C9.29602 12.3424 9.89269 11.3524 10.6759 10.5198C11.4591 9.68729 12.4108 9.0313 13.4675 8.59564V8.59751Z" fill="black"/>
</svg>
