<svg width="120" height="129" viewBox="0 0 120 129" fill="none" xmlns="http://www.w3.org/2000/svg">
<path d="M116.5 128.04H3.5C2.66667 114.706 0.999637 106.54 1 80.5398C1.00024 63.0398 3 50.0398 5 39.5398C6.6 31.1398 10.3333 21.3731 12 17.5398C14.5 11.7064 20.6 0.239774 25 1.03977C29.4 1.83977 36.1667 19.3731 39 28.0398H81C84 18.8731 91 0.639779 95 1.03978C100 1.53978 105 10.5398 108 17.5398C110.4 23.1398 113.667 34.5398 115 39.5398C116.333 46.0398 119 63.3398 119 80.5398C119 97.7398 117.333 119.373 116.5 128.04Z" fill="black" stroke="black"/>
<path d="M51.5 60.5C51.5 56.5 49.5 51 44.5 51C39.5 51 37 56.5 37 60.5C37 64.5 39.5 70 44.5 70C49.5 70 51.5 64.5 51.5 60.5Z" fill="white"/>
<path d="M82.5 60.5C82.5 56.5 80.5 51 75.5 51C70.5 51 68 56.5 68 60.5C68 64.5 70.5 70 75.5 70C80.5 70 82.5 64.5 82.5 60.5Z" fill="white"/>
<path d="M51.5 60.5C51.5 56.5 49.5 51 44.5 51C39.5 51 37 56.5 37 60.5C37 64.5 39.5 70 44.5 70C49.5 70 51.5 64.5 51.5 60.5Z" stroke="white"/>
<path d="M82.5 60.5C82.5 56.5 80.5 51 75.5 51C70.5 51 68 56.5 68 60.5C68 64.5 70.5 70 75.5 70C80.5 70 82.5 64.5 82.5 60.5Z" stroke="white"/>
</svg>
