<svg width="30" height="30" viewBox="0 0 30 30" fill="none" xmlns="http://www.w3.org/2000/svg">
<path d="M11.3968 2.47435C12.8514 -0.543 17.1486 -0.543002 18.6032 2.47434L20.8984 7.23545C21.2914 8.05072 21.9493 8.70861 22.7646 9.10163L27.5257 11.3968C30.543 12.8514 30.543 17.1486 27.5257 18.6032L22.7646 20.8984C21.9493 21.2914 21.2914 21.9493 20.8984 22.7646L18.6032 27.5257C17.1486 30.543 12.8514 30.543 11.3968 27.5257L9.10163 22.7646C8.70861 21.9493 8.05072 21.2914 7.23545 20.8984L2.47435 18.6032C-0.543 17.1486 -0.543002 12.8514 2.47434 11.3968L7.23545 9.10163C8.05072 8.70861 8.70861 8.05072 9.10163 7.23545L11.3968 2.47435Z" fill="#F05A49"/>
</svg>
