<svg width="32" height="32" viewBox="0 0 32 32" fill="none" xmlns="http://www.w3.org/2000/svg">
<path d="M12.7759 5.05637C13.9801 2.20572 18.0199 2.20572 19.2241 5.05637L20.1737 7.30409C21.0349 9.34275 22.6573 10.9651 24.6959 11.8263L26.9436 12.7759C29.7943 13.9801 29.7943 18.0199 26.9436 19.2241L24.6959 20.1737C22.6573 21.0349 21.0349 22.6573 20.1737 24.6959L19.2241 26.9436C18.0199 29.7943 13.9801 29.7943 12.7759 26.9436L11.8263 24.6959C10.9651 22.6573 9.34275 21.0349 7.30409 20.1737L5.05637 19.2241C2.20572 18.0199 2.20572 13.9801 5.05637 12.7759L7.30409 11.8263C9.34275 10.9651 10.9651 9.34275 11.8263 7.30409L12.7759 5.05637Z" stroke="#FDAD16" stroke-width="5"/>
</svg>
