<svg width="18" height="18" viewBox="0 0 18 18" fill="none" xmlns="http://www.w3.org/2000/svg">
<path d="M8.54691 2.51767C8.72647 2.13294 9.27353 2.13294 9.45308 2.51767L10.8334 5.47521L12.1926 4.84085L10.8334 5.47521C11.181 6.22016 11.7798 6.81896 12.5248 7.16662L15.4823 8.54691C15.8671 8.72647 15.8671 9.27353 15.4823 9.45308L12.5248 10.8334C11.7798 11.181 11.181 11.7798 10.8334 12.5248L12.1926 13.1592L10.8334 12.5248L9.45309 15.4823C9.27353 15.8671 8.72647 15.8671 8.54692 15.4823L7.16662 12.5248C6.81895 11.7798 6.22016 11.181 5.47522 10.8334L4.84085 12.1926L5.47521 10.8334L2.51767 9.45309C2.13294 9.27353 2.13294 8.72647 2.51767 8.54692L5.47521 7.16662C6.22016 6.81896 6.81896 6.22016 7.16662 5.47521L8.54691 2.51767Z" fill="#FDAD16" stroke="#FDAD16" stroke-width="3"/>
</svg>
